<svg width="11" height="11" viewBox="0 0 11 11" fill="none" xmlns="http://www.w3.org/2000/svg">
<path d="M10.5923 4.73553L9.85565 3.87969C9.71481 3.71719 9.60106 3.41385 9.60106 3.19719V2.27635C9.60106 1.70219 9.12981 1.23094 8.55565 1.23094H7.63481C7.42356 1.23094 7.11481 1.11719 6.95231 0.976354L6.09648 0.239688C5.72273 -0.0798958 5.11065 -0.0798958 4.73148 0.239688L3.88104 0.981771C3.71854 1.11719 3.40979 1.23094 3.19854 1.23094H2.26146C1.68729 1.23094 1.21604 1.70219 1.21604 2.27635V3.2026C1.21604 3.41385 1.10229 3.71719 0.966875 3.87969L0.235625 4.74094C-0.0785417 5.11469 -0.0785417 5.72136 0.235625 6.09511L0.966875 6.95636C1.10229 7.11886 1.21604 7.42219 1.21604 7.63344V8.55969C1.21604 9.13386 1.68729 9.60511 2.26146 9.60511H3.19854C3.40979 9.60511 3.71854 9.71886 3.88104 9.85969L4.7369 10.5964C5.11065 10.9159 5.72273 10.9159 6.1019 10.5964L6.95773 9.85969C7.12023 9.71886 7.42356 9.60511 7.64023 9.60511H8.56106C9.13523 9.60511 9.60648 9.13386 9.60648 8.55969V7.63886C9.60648 7.42761 9.72023 7.11886 9.86106 6.95636L10.5977 6.10053C10.9119 5.72678 10.9119 5.10928 10.5923 4.73553ZM7.66731 4.39428L5.05106 7.01053C4.97523 7.08636 4.87231 7.12969 4.76398 7.12969C4.65565 7.12969 4.55273 7.08636 4.4769 7.01053L3.16604 5.69969C3.00896 5.54261 3.00896 5.28261 3.16604 5.12553C3.32312 4.96844 3.58312 4.96844 3.74021 5.12553L4.76398 6.14928L7.09315 3.8201C7.25023 3.66302 7.51023 3.66302 7.66731 3.8201C7.8244 3.97719 7.8244 4.23719 7.66731 4.39428Z" fill="#6DF547"/>
</svg>
