<svg width="11" height="12" viewBox="0 0 11 12" fill="none" xmlns="http://www.w3.org/2000/svg">
<path d="M7.79165 5.87773H3.20831M6.87498 5.87773V6.79439M7.33331 4.04439H3.66665V2.66939C3.66665 2.54784 3.71493 2.43126 3.80089 2.3453C3.88684 2.25935 4.00342 2.21106 4.12498 2.21106H6.87498C6.99654 2.21106 7.11312 2.25935 7.19907 2.3453C7.28502 2.43126 7.33331 2.54784 7.33331 2.66939V4.04439Z" stroke="#E6F6F4" stroke-linecap="round" stroke-linejoin="round"/>
<path d="M9.625 10.0027V4.50271C9.625 4.24958 9.4198 4.04437 9.16667 4.04437L1.83333 4.04437C1.5802 4.04437 1.375 4.24958 1.375 4.50271V10.0027C1.375 10.2558 1.5802 10.461 1.83333 10.461H9.16667C9.4198 10.461 9.625 10.2558 9.625 10.0027Z" stroke="white" stroke-linecap="round" stroke-linejoin="round"/>
</svg>
