<svg width="10" height="12" viewBox="0 0 10 12" fill="none" xmlns="http://www.w3.org/2000/svg">
<g clip-path="url(#clip0_53_125)">
<path d="M2.88219 7.71504C2.88066 7.69792 2.87578 7.68215 2.87578 7.66503V7.51833C2.87578 7.44851 2.88615 7.37969 2.90691 7.31423C2.90691 7.31423 3.23926 6.82479 3.39642 6.24974C3.2243 5.85026 3.06805 5.35312 3.06805 4.86031C3.06805 4.74584 3.07568 4.63506 3.08637 4.52595C2.86207 4.26747 2.55902 4.12109 2.22424 4.12109C1.53301 4.12109 0.972108 4.74146 0.972108 5.70557C0.972108 6.47698 1.54279 7.31421 1.54279 7.31421C1.56293 7.37967 1.57332 7.44849 1.57332 7.51831V7.66501C1.57332 7.84797 1.47627 8.01447 1.3249 8.09068L0.418827 8.49787C0.208241 8.60462 0.058397 8.81745 0.0166001 9.06787L0.00103374 9.28708C-0.00689595 9.40122 0.0284947 9.51367 0.0992955 9.59727C0.169784 9.68153 0.268983 9.72886 0.373045 9.72886H1.85406L1.91478 8.87049L1.91875 8.84733C1.99291 8.39717 2.2633 8.01447 2.64109 7.82313L2.88219 7.71504Z" fill="white"/>
<path d="M9.98335 9.06787C9.94185 8.81745 9.792 8.6046 9.58144 8.49787L8.67476 8.09068C8.52339 8.01447 8.42695 7.84797 8.42695 7.66501V7.51831C8.42695 7.44849 8.43702 7.37967 8.45777 7.31421C8.45777 7.31421 9.02814 6.47698 9.02814 5.70557C9.02814 4.74146 8.46753 4.12109 7.77509 4.12109C7.44093 4.12109 7.13788 4.26747 6.91296 4.52661C6.92396 4.63539 6.93157 4.74582 6.93157 4.86028C6.93157 5.35275 6.77564 5.84992 6.60382 6.24938C6.76068 6.82443 7.09363 7.31421 7.09363 7.31421C7.11376 7.37967 7.12445 7.44849 7.12445 7.51831V7.66501C7.12445 7.68213 7.11925 7.6979 7.11773 7.71502L7.34234 7.81574C7.73601 8.0138 8.0064 8.39648 8.08148 8.84665L8.08515 8.87015L8.14558 9.72886H9.6272C9.73126 9.72886 9.83044 9.68153 9.90064 9.59727C9.97144 9.51367 10.0068 9.40122 9.9989 9.28708L9.98335 9.06787Z" fill="white"/>
<path d="M7.18486 8.23974L6.08806 7.74661C5.90496 7.65395 5.78808 7.45253 5.78808 7.23165V7.05374C5.78808 6.96982 5.80029 6.88623 5.82562 6.80667C5.82562 6.80667 6.51533 5.79422 6.51533 4.86031C6.51533 3.69343 5.83693 2.94318 4.99982 2.94318C4.16302 2.94318 3.48431 3.69345 3.48431 4.86031C3.48431 5.79422 4.17462 6.80667 4.17462 6.80667C4.19935 6.88623 4.21216 6.96982 4.21216 7.05374V7.23165C4.21216 7.45253 4.09437 7.65395 3.91156 7.74661L2.81476 8.23974C2.55994 8.3683 2.37835 8.62612 2.32832 8.92958L2.27185 9.72887H4.99982H7.72779L7.67195 8.92958C7.62126 8.62614 7.43968 8.36832 7.18486 8.23974Z" fill="white"/>
</g>
<defs>
<clipPath id="clip0_53_125">
<rect width="10" height="11" fill="white" transform="translate(0 0.83606)"/>
</clipPath>
</defs>
</svg>
