<svg width="9" height="10" viewBox="0 0 9 10" fill="none" xmlns="http://www.w3.org/2000/svg">
<path d="M4.39704 6.7493C4.35992 6.66773 4.28304 6.60822 4.19 6.59765C4.11122 6.58865 4.03408 6.57177 3.96073 6.54743C3.92784 6.53637 3.89698 6.5243 3.8684 6.51136L3.91588 6.38195C3.9494 6.39691 3.98394 6.4106 4.0193 6.42297L4.02077 6.4235L4.02227 6.42398C4.13574 6.46148 4.24742 6.4805 4.3541 6.4805C4.46124 6.4805 4.5389 6.46613 4.59857 6.43535L4.60213 6.43351L4.60562 6.43148C4.69599 6.37962 4.74785 6.29048 4.74785 6.18687C4.74785 6.0719 4.68583 5.97646 4.57764 5.9249C4.52323 5.89842 4.44594 5.87315 4.3346 5.84547C4.22042 5.8166 4.12449 5.78596 4.05009 5.75457C3.99572 5.72997 3.94854 5.69071 3.90602 5.63457C3.86942 5.58447 3.85089 5.50913 3.85089 5.41055C3.85089 5.2916 3.88438 5.19342 3.9533 5.1104C4.01465 5.03765 4.10177 4.98822 4.21869 4.96051C4.30543 4.93996 4.37308 4.87805 4.40349 4.7981C4.43788 4.87913 4.51104 4.9394 4.60209 4.95391C4.67814 4.96602 4.74797 4.98533 4.81074 5.01147L4.76705 5.1383C4.64852 5.09071 4.53185 5.06667 4.41902 5.06667C4.04428 5.06667 4.0253 5.3252 4.0253 5.37702C4.0253 5.48937 4.08598 5.58357 4.19177 5.63551L4.19473 5.63697L4.19773 5.63832C4.25117 5.66217 4.32699 5.68516 4.43642 5.71066C4.54955 5.73623 4.6439 5.76552 4.71804 5.798L4.71958 5.79867L4.72112 5.79931C4.77617 5.82222 4.82338 5.86047 4.86545 5.91627L4.86613 5.91713L4.8668 5.91803C4.90359 5.96558 4.92227 6.03912 4.92227 6.13662C4.92227 6.24916 4.88968 6.34441 4.82263 6.42785C4.76447 6.50022 4.68328 6.55032 4.57434 6.581C4.49023 6.6047 4.42498 6.66901 4.39704 6.7493Z" fill="white"/>
<path d="M4.49195 7.08606H4.31139C4.271 7.08606 4.23826 7.0525 4.23826 7.01106V6.8605C4.23826 6.8209 4.20823 6.78835 4.16983 6.78396C4.0784 6.77357 3.98998 6.75418 3.90451 6.72583C3.82149 6.69786 3.74956 6.66471 3.68873 6.62627C3.66077 6.60861 3.6506 6.57276 3.66216 6.54126L3.78601 6.20353C3.8027 6.15808 3.85651 6.14068 3.89795 6.1642C3.9539 6.19588 4.01405 6.223 4.07833 6.2455C4.17414 6.27715 4.26609 6.29297 4.35414 6.29297C4.42985 6.29297 4.48396 6.28461 4.5164 6.26785C4.54884 6.24921 4.56508 6.22221 4.56508 6.18685C4.56508 6.1459 4.54344 6.11518 4.50016 6.09471C4.45846 6.07423 4.3889 6.05188 4.29159 6.0277C4.16641 5.99605 4.06213 5.96252 3.97869 5.92716C3.89525 5.88992 3.82261 5.83033 3.76081 5.74843C3.699 5.66466 3.6681 5.55201 3.6681 5.41052C3.6681 5.24668 3.71677 5.10613 3.8141 4.98883C3.90185 4.88481 4.02298 4.81446 4.17755 4.77782C4.21235 4.76957 4.23826 4.7386 4.23826 4.702V4.53606C4.23826 4.49462 4.271 4.46106 4.31139 4.46106H4.49195C4.53234 4.46106 4.56508 4.49462 4.56508 4.53606V4.69251C4.56508 4.73083 4.59328 4.76275 4.63018 4.76863C4.76559 4.7902 4.88458 4.83103 4.9871 4.89115C5.0162 4.90821 5.02775 4.94451 5.01658 4.97691L4.90066 5.31325C4.88533 5.35783 4.83414 5.3767 4.79296 5.3554C4.66239 5.2879 4.53778 5.25415 4.41905 5.25415C4.27843 5.25415 4.20811 5.2951 4.20811 5.377C4.20811 5.41611 4.229 5.44588 4.2707 5.4664C4.31244 5.485 4.38118 5.50547 4.47699 5.52782C4.60059 5.55576 4.70491 5.58831 4.78989 5.62555C4.87486 5.66091 4.94825 5.71956 5.01009 5.8015C5.07343 5.8834 5.10511 5.99511 5.10511 6.1366C5.10511 6.29297 5.05798 6.42981 4.9637 6.54711C4.88161 6.64933 4.76795 6.72088 4.62279 6.7618C4.58941 6.77121 4.56508 6.80151 4.56508 6.83698V7.01106C4.56508 7.0525 4.53234 7.08606 4.49195 7.08606Z" fill="white"/>
<path fill-rule="evenodd" clip-rule="evenodd" d="M3.59713 2.21106H5.18029C5.58577 2.21106 5.3631 2.83506 5.19892 3.21568L5.0121 3.65218L4.98686 3.71106C5.16382 3.70225 5.33884 3.75251 5.48557 3.85431C6.03454 4.36948 6.48007 4.98973 6.7971 5.68018C6.92062 5.93548 6.96964 6.22198 6.93821 6.50518C6.90049 7.22702 6.33585 7.80223 5.63182 7.83606H3.14559C2.44137 7.80325 1.8759 7.22863 1.83738 6.50668C1.80595 6.22348 1.85496 5.93698 1.97851 5.68168C2.29591 4.99056 2.74206 4.36975 3.29184 3.85431C3.4386 3.75251 3.61358 3.70225 3.79054 3.71106L3.76129 3.64318L3.57849 3.21568C3.41505 2.83506 3.19129 2.21106 3.59713 2.21106Z" stroke="white" stroke-linecap="round" stroke-linejoin="round"/>
<path d="M4.98685 3.9923C5.14218 3.9923 5.2681 3.86638 5.2681 3.71105C5.2681 3.55572 5.14218 3.4298 4.98685 3.4298V3.9923ZM3.79053 3.4298C3.63521 3.4298 3.50929 3.55572 3.50929 3.71105C3.50929 3.86638 3.63521 3.9923 3.79053 3.9923V3.4298ZM5.99159 3.57976C6.12618 3.50222 6.17245 3.33026 6.0949 3.19566C6.01735 3.06107 5.84542 3.01481 5.71083 3.09235L5.99159 3.57976ZM5.01209 3.65218L5.06635 3.92814L5.06718 3.92798L5.01209 3.65218ZM3.76128 3.64318L3.81952 3.368L3.81697 3.36749L3.76128 3.64318ZM3.06224 3.08989C2.92629 3.01476 2.75517 3.06406 2.68004 3.20001C2.60491 3.33596 2.65421 3.50708 2.79016 3.58221L3.06224 3.08989ZM4.98685 3.4298H3.79053V3.9923H4.98685V3.4298ZM5.71083 3.09235C5.4757 3.22778 5.22123 3.32361 4.957 3.37637L5.06718 3.92798C5.39167 3.86318 5.70378 3.74556 5.99159 3.57976L5.71083 3.09235ZM4.95783 3.37621C4.58155 3.4502 4.19478 3.44741 3.81952 3.368L3.70306 3.91833C4.15244 4.01342 4.61572 4.01675 5.06635 3.92814L4.95783 3.37621ZM3.81697 3.36749C3.55344 3.31429 3.29903 3.22076 3.06224 3.08989L2.79016 3.58221C3.07696 3.74071 3.38556 3.85424 3.70562 3.91886L3.81697 3.36749Z" fill="#6C8E23"/>
</svg>
